# WaveFront *.obj file (generated by Autodesk ATF)

mtllib CraneClaw.mtl

g Body1

v 112.801245 -158.407567 0.000000
v -7.380821 -289.877569 0.000000
v -7.380821 -289.877569 25.000000
v 112.801245 -158.407567 25.000000
v 112.400499 -144.499555 0.000000
v 114.241711 -146.950376 0.000000
v 115.254023 -149.843784 0.000000
v 115.342313 -152.907898 0.000000
v 114.498283 -155.854794 0.000000
v 114.498283 -155.854794 25.000000
v 115.342313 -152.907898 25.000000
v 115.254023 -149.843784 25.000000
v 114.241711 -146.950376 25.000000
v 112.400499 -144.499555 25.000000
v -17.462984 -17.915383 0.000000
v -17.462984 -17.915383 25.000000
v 18.162321 17.206013 0.000000
v 14.133348 20.643770 0.000000
v 9.470983 23.156365 0.000000
v 4.384170 24.631196 0.000000
v -0.899122 25.002167 0.000000
v -6.142118 24.252652 0.000000
v -11.109853 22.416242 0.000000
v -15.579694 19.575237 0.000000
v -19.351323 15.856957 0.000000
v -22.255711 11.428039 0.000000
v -24.162699 6.486967 0.000000
v -24.986822 1.255179 0.000000
v -24.691148 -4.032861 0.000000
v -23.288927 -9.140166 0.000000
v -20.843001 -13.837850 0.000000
v -20.843001 -13.837850 25.000000
v -23.288927 -9.140166 25.000000
v -24.691148 -4.032861 25.000000
v -24.986822 1.255179 25.000000
v -24.162699 6.486967 25.000000
v -22.255711 11.428039 25.000000
v -19.351323 15.856957 25.000000
v -15.579694 19.575237 25.000000
v -11.109853 22.416242 25.000000
v -6.142118 24.252652 25.000000
v -0.899122 25.002167 25.000000
v 4.384170 24.631196 25.000000
v 9.470983 23.156365 25.000000
v 14.133348 20.643770 25.000000
v 18.162321 17.206013 25.000000
v 163.406764 -136.111096 0.000000
v 163.406764 -136.111096 25.000000
v 162.119851 -165.985242 0.000000
v 165.290946 -162.441653 0.000000
v 167.574947 -158.270776 0.000000
v 168.852625 -153.690338 0.000000
v 169.057283 -148.939445 0.000000
v 168.178238 -144.266100 0.000000
v 166.261377 -139.914260 0.000000
v 166.261377 -139.914260 25.000000
v 168.178238 -144.266100 25.000000
v 169.057283 -148.939445 25.000000
v 168.852625 -153.690338 25.000000
v 167.574947 -158.270776 25.000000
v 165.290946 -162.441653 25.000000
v 162.119851 -165.985242 25.000000
v 6.641286 -304.100860 0.000000
v 6.641286 -304.100860 25.000000
v -9.198686 -292.702410 0.000000
v -9.978537 -295.969855 0.000000
v -9.632375 -299.311192 0.000000
v -8.199260 -302.349373 0.000000
v -5.840911 -304.741558 0.000000
v -2.823452 -306.217806 0.000000
v 0.512615 -306.611530 0.000000
v 3.790836 -305.878301 0.000000
v 3.790836 -305.878301 25.000000
v 0.512615 -306.611530 25.000000
v -2.823452 -306.217806 25.000000
v -5.840911 -304.741558 25.000000
v -8.199260 -302.349373 25.000000
v -9.632375 -299.311192 25.000000
v -9.978537 -295.969855 25.000000
v -9.198686 -292.702410 25.000000
vt -0.000000 0.000000 0.000000
vt 17.812381 0.000000 0.000000
vt -0.000000 2.500000 0.000000
vt 17.812381 2.500000 0.000000
vt 2.500000 1.538758 0.000000
vt -0.000000 1.538758 0.000000
vt 2.500000 1.231006 0.000000
vt -0.000000 1.231006 0.000000
vt 2.500000 0.923255 0.000000
vt -0.000000 0.923255 0.000000
vt 2.500000 0.615503 0.000000
vt 0.000000 0.615503 0.000000
vt 2.500000 0.307752 0.000000
vt 0.000000 0.307752 0.000000
vt 2.500000 0.000000 0.000000
vt -0.000000 0.000000 0.000000
vt 0.000000 0.000000 0.000000
vt 18.135070 0.000000 0.000000
vt -0.000000 2.500000 0.000000
vt 18.135070 2.500000 0.000000
vt -2.500000 1.897306 0.000000
vt -0.000000 1.897306 0.000000
vt -2.500000 2.427929 0.000000
vt -0.000000 2.427929 0.000000
vt -2.500000 2.958553 0.000000
vt -0.000000 2.958553 0.000000
vt -2.500000 3.489177 0.000000
vt -0.000000 3.489177 0.000000
vt -2.500000 4.019801 0.000000
vt -0.000000 4.019801 0.000000
vt -2.500000 4.550425 0.000000
vt -0.000000 4.550425 0.000000
vt -2.500000 5.081049 0.000000
vt -0.000000 5.081049 0.000000
vt -2.500000 5.611673 0.000000
vt -0.000000 5.611673 0.000000
vt -2.500000 6.142297 0.000000
vt -0.000000 6.142297 0.000000
vt -2.500000 6.672921 0.000000
vt -0.000000 6.672921 0.000000
vt -2.500000 7.203545 0.000000
vt -0.000000 7.203545 0.000000
vt -2.500000 7.734169 0.000000
vt -0.000000 7.734169 0.000000
vt -2.500000 8.264793 0.000000
vt -0.000000 8.264793 0.000000
vt -2.500000 8.795417 0.000000
vt -0.000000 8.795417 0.000000
vt -2.500000 9.326041 0.000000
vt -0.000000 9.326041 0.000000
vt -2.500000 9.856665 0.000000
vt -0.000000 9.856665 0.000000
vt 0.000000 0.000000 0.000000
vt 21.119206 0.000000 0.000000
vt 0.000000 2.500000 0.000000
vt 21.119206 2.500000 0.000000
vt -2.500000 -1.757599 0.000000
vt -0.000000 -1.757599 0.000000
vt -2.500000 -1.281029 0.000000
vt -0.000000 -1.281029 0.000000
vt -2.500000 -0.804458 0.000000
vt -0.000000 -0.804458 0.000000
vt -2.500000 -0.327888 0.000000
vt -0.000000 -0.327888 0.000000
vt -2.500000 0.148682 0.000000
vt -0.000000 0.148682 0.000000
vt -2.500000 0.625253 0.000000
vt -0.000000 0.625253 0.000000
vt -2.500000 1.101823 0.000000
vt -0.000000 1.101823 0.000000
vt -2.500000 1.578393 0.000000
vt -0.000000 1.578393 0.000000
vt 0.000000 0.000000 0.000000
vt 20.796516 0.000000 0.000000
vt 0.000000 2.500000 0.000000
vt 20.796516 2.500000 0.000000
vt -2.500000 2.401020 0.000000
vt -0.000000 2.401020 0.000000
vt -2.500000 2.738542 0.000000
vt -0.000000 2.738542 0.000000
vt -2.500000 3.076064 0.000000
vt -0.000000 3.076064 0.000000
vt -2.500000 3.413585 0.000000
vt -0.000000 3.413585 0.000000
vt -2.500000 3.751107 0.000000
vt -0.000000 3.751107 0.000000
vt -2.500000 4.088629 0.000000
vt -0.000000 4.088629 0.000000
vt -2.500000 4.426151 0.000000
vt -0.000000 4.426151 0.000000
vt -2.500000 4.763673 0.000000
vt -0.000000 4.763673 0.000000
vt -2.500000 5.101195 0.000000
vt -0.000000 5.101195 0.000000
vt -2.500000 5.438717 0.000000
vt -0.000000 5.438717 0.000000
vt -8.124471 -15.189924 0.000000
vt -8.024528 -16.154620 0.000000
vt -7.942684 -14.907439 0.000000
vt -7.788693 -16.393838 0.000000
vt -7.486947 -16.541463 0.000000
vt -8.202456 -15.516668 0.000000
vt -8.167839 -15.850802 0.000000
vt -7.153340 -16.580836 0.000000
vt -6.825518 -16.507513 0.000000
vt -6.540473 -16.329769 0.000000
vt 4.075523 -1.760439 0.000000
vt 9.007383 -2.518207 0.000000
vt 4.245226 -1.505162 0.000000
vt 4.329629 -1.210472 0.000000
vt 4.320800 -0.904061 0.000000
vt 9.136074 0.469208 0.000000
vt 4.219569 -0.614720 0.000000
vt 4.035448 -0.369638 0.000000
vt -5.388370 15.800919 0.000000
vt -8.950900 12.288779 0.000000
vt -5.791267 16.144694 0.000000
vt -6.257504 16.395954 0.000000
vt 9.324493 -2.163848 0.000000
vt 9.421536 0.088891 0.000000
vt 9.552893 -1.746760 0.000000
vt 9.613222 -0.346293 0.000000
vt 9.680661 -1.288716 0.000000
vt 9.701126 -0.813627 0.000000
vt -6.766185 16.543437 0.000000
vt -7.294514 16.580534 0.000000
vt -7.818814 16.505583 0.000000
vt -8.315587 16.321942 0.000000
vt -8.762571 16.037841 0.000000
vt -9.139734 15.666013 0.000000
vt -9.288902 12.696532 0.000000
vt -9.430173 15.223121 0.000000
vt -9.533495 13.166301 0.000000
vt -9.620872 14.729014 0.000000
vt -9.673717 13.677031 0.000000
vt -9.703284 14.205835 0.000000
vt 6.825518 -16.507513 0.000000
vt 7.942684 -14.907439 0.000000
vt 6.540473 -16.329769 0.000000
vt -4.075523 -1.760439 0.000000
vt -9.007383 -2.518207 0.000000
vt -4.245226 -1.505162 0.000000
vt -4.329629 -1.210472 0.000000
vt 7.153340 -16.580836 0.000000
vt 7.486947 -16.541463 0.000000
vt 7.788693 -16.393838 0.000000
vt 8.024528 -16.154620 0.000000
vt 8.124471 -15.189924 0.000000
vt 8.167839 -15.850802 0.000000
vt 8.202456 -15.516668 0.000000
vt -4.320800 -0.904061 0.000000
vt -9.136074 0.469208 0.000000
vt -9.324493 -2.163848 0.000000
vt -9.421536 0.088891 0.000000
vt -9.552893 -1.746760 0.000000
vt -9.613222 -0.346293 0.000000
vt -9.680661 -1.288716 0.000000
vt -9.701126 -0.813627 0.000000
vt -4.219569 -0.614720 0.000000
vt -4.035448 -0.369638 0.000000
vt 5.388370 15.800919 0.000000
vt 8.950900 12.288779 0.000000
vt 5.791267 16.144694 0.000000
vt 6.257504 16.395954 0.000000
vt 6.766185 16.543437 0.000000
vt 7.294514 16.580534 0.000000
vt 7.818814 16.505583 0.000000
vt 8.315587 16.321942 0.000000
vt 8.762571 16.037841 0.000000
vt 9.139734 15.666013 0.000000
vt 9.288902 12.696532 0.000000
vt 9.430173 15.223121 0.000000
vt 9.533495 13.166301 0.000000
vt 9.620872 14.729014 0.000000
vt 9.673717 13.677031 0.000000
vt 9.703284 14.205835 0.000000
vn -0.073808 0.067471 0.000000
vn -0.073808 0.067471 0.000000
vn -0.073808 0.067471 0.000000
vn -0.073808 0.067471 0.000000
vn -0.069801 -0.071609 0.000000
vn -0.069801 -0.071609 0.000000
vn -0.088213 -0.047101 0.000000
vn -0.088213 -0.047101 0.000000
vn -0.098336 -0.018167 0.000000
vn -0.098336 -0.018167 0.000000
vn -0.099219 0.012474 0.000000
vn -0.099219 0.012474 0.000000
vn -0.090779 0.041943 0.000000
vn -0.090779 0.041943 0.000000
vn -0.069801 -0.071609 0.000000
vn -0.069801 -0.071609 0.000000
vn 0.072596 0.068774 0.000000
vn 0.072596 0.068774 0.000000
vn 0.056492 0.082515 0.000000
vn 0.056492 0.082515 0.000000
vn 0.037856 0.092558 0.000000
vn 0.037856 0.092558 0.000000
vn 0.017524 0.098453 0.000000
vn 0.017524 0.098453 0.000000
vn -0.003594 0.099935 -0.000000
vn -0.003594 0.099935 -0.000000
vn -0.024550 0.096940 -0.000000
vn -0.024550 0.096940 -0.000000
vn -0.044407 0.089599 -0.000000
vn -0.044407 0.089599 -0.000000
vn -0.062273 0.078244 -0.000000
vn -0.062273 0.078244 -0.000000
vn -0.077349 0.063381 -0.000000
vn -0.077349 0.063381 -0.000000
vn -0.088958 0.045679 -0.000000
vn -0.088958 0.045679 -0.000000
vn -0.096580 0.025929 -0.000000
vn -0.096580 0.025929 -0.000000
vn -0.099874 0.005017 -0.000000
vn -0.099874 0.005017 -0.000000
vn -0.098692 -0.016120 0.000000
vn -0.098692 -0.016120 0.000000
vn -0.093087 -0.036534 0.000000
vn -0.093087 -0.036534 0.000000
vn -0.083311 -0.055311 0.000000
vn -0.083311 -0.055311 0.000000
vn 0.072596 0.068774 0.000000
vn 0.072596 0.068774 0.000000
vn 0.066413 -0.074762 0.000000
vn 0.066413 -0.074762 0.000000
vn 0.081649 -0.057736 0.000000
vn 0.081649 -0.057736 0.000000
vn 0.092623 -0.037696 0.000000
vn 0.092623 -0.037696 0.000000
vn 0.098762 -0.015689 0.000000
vn 0.098762 -0.015689 0.000000
vn 0.099745 0.007138 0.000000
vn 0.099745 0.007138 0.000000
vn 0.095521 0.029592 0.000000
vn 0.095521 0.029592 0.000000
vn 0.086312 0.050501 0.000000
vn 0.086312 0.050501 0.000000
vn 0.066413 -0.074762 0.000000
vn 0.066413 -0.074762 0.000000
vn -0.091987 0.039223 -0.000000
vn -0.091987 0.039223 -0.000000
vn -0.099785 0.006548 -0.000000
vn -0.099785 0.006548 -0.000000
vn -0.096324 -0.026865 0.000000
vn -0.096324 -0.026865 0.000000
vn -0.081993 -0.057247 0.000000
vn -0.081993 -0.057247 0.000000
vn -0.058409 -0.081169 0.000000
vn -0.058409 -0.081169 0.000000
vn -0.028235 -0.095931 0.000000
vn -0.028235 -0.095931 0.000000
vn 0.005126 -0.099869 0.000000
vn 0.005126 -0.099869 0.000000
vn 0.037908 -0.092536 0.000000
vn 0.037908 -0.092536 0.000000
vn 0.000000 0.000000 0.100000
vn 0.000000 0.000000 0.100000
vn 0.000000 0.000000 0.100000
vn 0.000000 0.000000 0.100000
vn 0.000000 0.000000 0.100000
vn 0.000000 0.000000 0.100000
vn 0.000000 0.000000 0.100000
vn 0.000000 0.000000 0.100000
vn 0.000000 0.000000 0.100000
vn 0.000000 0.000000 0.100000
vn 0.000000 0.000000 0.100000
vn 0.000000 0.000000 0.100000
vn 0.000000 0.000000 0.100000
vn 0.000000 0.000000 0.100000
vn 0.000000 0.000000 0.100000
vn 0.000000 0.000000 0.100000
vn 0.000000 0.000000 0.100000
vn 0.000000 0.000000 0.100000
vn 0.000000 0.000000 0.100000
vn 0.000000 0.000000 0.100000
vn 0.000000 0.000000 0.100000
vn 0.000000 0.000000 0.100000
vn 0.000000 0.000000 0.100000
vn 0.000000 0.000000 0.100000
vn 0.000000 0.000000 0.100000
vn 0.000000 0.000000 0.100000
vn 0.000000 0.000000 0.100000
vn 0.000000 0.000000 0.100000
vn 0.000000 0.000000 0.100000
vn 0.000000 0.000000 0.100000
vn 0.000000 0.000000 0.100000
vn 0.000000 0.000000 0.100000
vn 0.000000 0.000000 0.100000
vn 0.000000 0.000000 0.100000
vn 0.000000 0.000000 0.100000
vn 0.000000 0.000000 0.100000
vn 0.000000 0.000000 0.100000
vn 0.000000 0.000000 0.100000
vn 0.000000 0.000000 0.100000
vn 0.000000 0.000000 0.100000
vn 0.000000 0.000000 -0.100000
vn 0.000000 0.000000 -0.100000
vn 0.000000 0.000000 -0.100000
vn 0.000000 0.000000 -0.100000
vn 0.000000 0.000000 -0.100000
vn 0.000000 0.000000 -0.100000
vn 0.000000 0.000000 -0.100000
vn 0.000000 0.000000 -0.100000
vn 0.000000 0.000000 -0.100000
vn 0.000000 0.000000 -0.100000
vn 0.000000 0.000000 -0.100000
vn 0.000000 0.000000 -0.100000
vn 0.000000 0.000000 -0.100000
vn 0.000000 0.000000 -0.100000
vn 0.000000 0.000000 -0.100000
vn 0.000000 0.000000 -0.100000
vn 0.000000 0.000000 -0.100000
vn 0.000000 0.000000 -0.100000
vn 0.000000 0.000000 -0.100000
vn 0.000000 0.000000 -0.100000
vn 0.000000 0.000000 -0.100000
vn 0.000000 0.000000 -0.100000
vn 0.000000 0.000000 -0.100000
vn 0.000000 0.000000 -0.100000
vn 0.000000 0.000000 -0.100000
vn 0.000000 0.000000 -0.100000
vn 0.000000 0.000000 -0.100000
vn 0.000000 0.000000 -0.100000
vn 0.000000 0.000000 -0.100000
vn 0.000000 0.000000 -0.100000
vn 0.000000 0.000000 -0.100000
vn 0.000000 0.000000 -0.100000
vn 0.000000 0.000000 -0.100000
vn 0.000000 0.000000 -0.100000
vn 0.000000 0.000000 -0.100000
vn 0.000000 0.000000 -0.100000
vn 0.000000 0.000000 -0.100000
vn 0.000000 0.000000 -0.100000
vn 0.000000 0.000000 -0.100000
vn 0.000000 0.000000 -0.100000
usemtl Steel_-_Satin
f 1/1/1 2/2/2 4/3/3
f 4/3/3 2/2/2 3/4/4
f 14/5/5 5/6/6 13/7/7
f 13/7/7 5/6/6 6/8/8
f 13/7/7 6/8/8 12/9/9
f 12/9/9 6/8/8 7/10/10
f 12/9/9 7/10/10 11/11/11
f 11/11/11 7/10/10 8/12/12
f 11/11/11 8/12/12 10/13/13
f 10/13/13 8/12/12 9/14/14
f 10/13/13 9/14/14 4/15/3
f 4/15/3 9/14/14 1/16/1
f 15/17/15 5/18/6 16/19/16
f 16/19/16 5/18/6 14/20/5
f 46/21/17 17/22/18 45/23/19
f 45/23/19 17/22/18 18/24/20
f 45/23/19 18/24/20 44/25/21
f 44/25/21 18/24/20 19/26/22
f 44/25/21 19/26/22 43/27/23
f 43/27/23 19/26/22 20/28/24
f 43/27/23 20/28/24 42/29/25
f 42/29/25 20/28/24 21/30/26
f 42/29/25 21/30/26 41/31/27
f 41/31/27 21/30/26 22/32/28
f 41/31/27 22/32/28 40/33/29
f 40/33/29 22/32/28 23/34/30
f 40/33/29 23/34/30 39/35/31
f 39/35/31 23/34/30 24/36/32
f 39/35/31 24/36/32 38/37/33
f 38/37/33 24/36/32 25/38/34
f 38/37/33 25/38/34 37/39/35
f 37/39/35 25/38/34 26/40/36
f 37/39/35 26/40/36 36/41/37
f 36/41/37 26/40/36 27/42/38
f 36/41/37 27/42/38 35/43/39
f 35/43/39 27/42/38 28/44/40
f 35/43/39 28/44/40 34/45/41
f 34/45/41 28/44/40 29/46/42
f 34/45/41 29/46/42 33/47/43
f 33/47/43 29/46/42 30/48/44
f 33/47/43 30/48/44 32/49/45
f 32/49/45 30/48/44 31/50/46
f 32/49/45 31/50/46 16/51/16
f 16/51/16 31/50/46 15/52/15
f 47/53/47 17/54/18 48/55/48
f 48/55/48 17/54/18 46/56/17
f 62/57/49 49/58/50 61/59/51
f 61/59/51 49/58/50 50/60/52
f 61/59/51 50/60/52 60/61/53
f 60/61/53 50/60/52 51/62/54
f 60/61/53 51/62/54 59/63/55
f 59/63/55 51/62/54 52/64/56
f 59/63/55 52/64/56 58/65/57
f 58/65/57 52/64/56 53/66/58
f 58/65/57 53/66/58 57/67/59
f 57/67/59 53/66/58 54/68/60
f 57/67/59 54/68/60 56/69/61
f 56/69/61 54/68/60 55/70/62
f 56/69/61 55/70/62 48/71/48
f 48/71/48 55/70/62 47/72/47
f 63/73/63 49/74/50 64/75/64
f 64/75/64 49/74/50 62/76/49
f 3/77/4 2/78/2 80/79/65
f 80/79/65 2/78/2 65/80/66
f 80/79/65 65/80/66 79/81/67
f 79/81/67 65/80/66 66/82/68
f 79/81/67 66/82/68 78/83/69
f 78/83/69 66/82/68 67/84/70
f 78/83/69 67/84/70 77/85/71
f 77/85/71 67/84/70 68/86/72
f 77/85/71 68/86/72 76/87/73
f 76/87/73 68/86/72 69/88/74
f 76/87/73 69/88/74 75/89/75
f 75/89/75 69/88/74 70/90/76
f 75/89/75 70/90/76 74/91/77
f 74/91/77 70/90/76 71/92/78
f 74/91/77 71/92/78 73/93/79
f 73/93/79 71/92/78 72/94/80
f 73/93/79 72/94/80 64/95/64
f 64/95/64 72/94/80 63/96/63
f 80/97/81 77/98/82 3/99/83
f 3/99/83 77/98/82 76/100/84
f 3/99/83 76/100/84 75/101/85
f 79/102/86 78/103/87 80/97/81
f 80/97/81 78/103/87 77/98/82
f 75/101/85 74/104/88 3/99/83
f 3/99/83 74/104/88 73/105/89
f 3/99/83 73/105/89 64/106/90
f 3/99/83 64/106/90 4/107/91
f 4/107/91 64/106/90 62/108/92
f 4/107/91 62/108/92 10/109/93
f 10/109/93 62/108/92 11/110/94
f 11/110/94 62/108/92 12/111/95
f 12/111/95 62/108/92 48/112/96
f 12/111/95 48/112/96 13/113/97
f 13/113/97 48/112/96 14/114/98
f 14/114/98 48/112/96 46/115/99
f 14/114/98 46/115/99 16/116/100
f 16/116/100 46/115/99 45/117/101
f 16/116/100 45/117/101 44/118/102
f 62/108/92 61/119/103 48/112/96
f 48/112/96 61/119/103 56/120/104
f 56/120/104 61/119/103 60/121/105
f 56/120/104 60/121/105 57/122/106
f 57/122/106 60/121/105 59/123/107
f 57/122/106 59/123/107 58/124/108
f 44/118/102 43/125/109 16/116/100
f 16/116/100 43/125/109 42/126/110
f 16/116/100 42/126/110 41/127/111
f 41/127/111 40/128/112 16/116/100
f 16/116/100 40/128/112 39/129/113
f 16/116/100 39/129/113 38/130/114
f 16/116/100 38/130/114 32/131/115
f 32/131/115 38/130/114 37/132/116
f 32/131/115 37/132/116 33/133/117
f 33/133/117 37/132/116 36/134/118
f 33/133/117 36/134/118 34/135/119
f 34/135/119 36/134/118 35/136/120
f 72/137/121 2/138/122 63/139/123
f 63/139/123 2/138/122 1/140/124
f 63/139/123 1/140/124 49/141/125
f 49/141/125 1/140/124 9/142/126
f 49/141/125 9/142/126 8/143/127
f 72/137/121 71/144/128 2/138/122
f 2/138/122 71/144/128 70/145/129
f 2/138/122 70/145/129 69/146/130
f 69/146/130 68/147/131 2/138/122
f 2/138/122 68/147/131 65/148/132
f 65/148/132 68/147/131 67/149/133
f 65/148/132 67/149/133 66/150/134
f 8/143/127 7/151/135 49/141/125
f 49/141/125 7/151/135 47/152/136
f 49/141/125 47/152/136 50/153/137
f 50/153/137 47/152/136 55/154/138
f 50/153/137 55/154/138 51/155/139
f 51/155/139 55/154/138 54/156/140
f 51/155/139 54/156/140 52/157/141
f 52/157/141 54/156/140 53/158/142
f 7/151/135 6/159/143 47/152/136
f 47/152/136 6/159/143 5/160/144
f 47/152/136 5/160/144 17/161/145
f 17/161/145 5/160/144 15/162/146
f 17/161/145 15/162/146 18/163/147
f 18/163/147 15/162/146 19/164/148
f 19/164/148 15/162/146 20/165/149
f 20/165/149 15/162/146 21/166/150
f 21/166/150 15/162/146 22/167/151
f 22/167/151 15/162/146 23/168/152
f 23/168/152 15/162/146 24/169/153
f 24/169/153 15/162/146 25/170/154
f 25/170/154 15/162/146 31/171/155
f 25/170/154 31/171/155 26/172/156
f 26/172/156 31/171/155 30/173/157
f 26/172/156 30/173/157 27/174/158
f 27/174/158 30/173/157 29/175/159
f 27/174/158 29/175/159 28/176/160
# 80 vertices
# 176 texture params
# 160 normals
# 156 facets

# 1 groups
